<?xml version="1.0" encoding="UTF-8"?>
<svg id="b" data-name="Слой 2" xmlns="http://www.w3.org/2000/svg" width="100" height="100" viewBox="0 0 100 100">
  <g id="c" data-name="Слой 1">
    <g>
      <path d="M91,5c2.21,0,4,1.79,4,4V91c0,2.21-1.79,4-4,4H9c-2.21,0-4-1.79-4-4V9c0-2.21,1.79-4,4-4H91m0-5H9C4.03,0,0,4.03,0,9V91c0,4.97,4.03,9,9,9H91c4.97,0,9-4.03,9-9V9c0-4.97-4.03-9-9-9h0Z"/>
      <g>
        <path d="M58.74,78.21c-.61,0-1.19-.26-1.59-.71l-1.08-1.19c-.78-.86-1.89-1.36-3.06-1.36-.15,0-.31,0-.46,.03-.9,.1-1.73,.15-2.54,.15s-1.65-.05-2.54-.15c-.15-.02-.31-.03-.46-.03-1.17,0-2.28,.5-3.06,1.36l-1.08,1.19c-.41,.45-.99,.71-1.59,.71-.23,0-.45-.04-.67-.11-1.31-.44-2.59-.97-3.81-1.58-.76-.38-1.22-1.17-1.17-2.02l.08-1.62c.07-1.31-.49-2.57-1.5-3.38-1.35-1.1-2.59-2.34-3.69-3.69-.77-.95-1.93-1.5-3.17-1.5-.07,0-.14,0-.21,0l-1.73,.09c-.81,0-1.56-.46-1.91-1.18-.61-1.23-1.14-2.51-1.58-3.81-.27-.81-.03-1.69,.6-2.27l1.19-1.08c.98-.89,1.48-2.2,1.33-3.52-.1-.89-.15-1.72-.15-2.54s.05-1.65,.15-2.54c.15-1.32-.35-2.64-1.33-3.52l-1.19-1.08c-.63-.57-.87-1.46-.6-2.27,.43-1.3,.96-2.58,1.58-3.81,.36-.72,1.11-1.18,1.91-1.18l1.73,.09c.07,0,.14,0,.21,0,1.24,0,2.4-.55,3.17-1.5,1.1-1.35,2.34-2.59,3.69-3.69,1-.81,1.56-2.08,1.49-3.38l-.08-1.62c-.04-.85,.42-1.65,1.17-2.02,1.23-.61,2.51-1.14,3.81-1.58,.22-.07,.44-.11,.67-.11,.61,0,1.19,.26,1.59,.71l1.08,1.19c.78,.86,1.9,1.36,3.06,1.36,.15,0,.31,0,.46-.03,.89-.1,1.72-.15,2.54-.15s1.65,.05,2.54,.15c.15,.02,.31,.03,.46,.03,1.17,0,2.28-.5,3.06-1.36l1.08-1.19c.41-.45,.99-.71,1.59-.71,.23,0,.46,.04,.67,.11,1.3,.44,2.59,.97,3.81,1.58,.76,.38,1.22,1.17,1.17,2.02l-.08,1.62c-.07,1.3,.49,2.57,1.49,3.38,1.35,1.1,2.59,2.34,3.69,3.69,.77,.95,1.93,1.5,3.17,1.5,.07,0,.14,0,.21,0l1.73-.09c.81,0,1.56,.46,1.91,1.18,.61,1.23,1.14,2.51,1.58,3.81,.27,.81,.03,1.69-.6,2.27l-1.19,1.08c-.98,.89-1.48,2.21-1.33,3.52,.1,.89,.15,1.72,.15,2.54s-.05,1.65-.15,2.54c-.15,1.32,.35,2.64,1.33,3.52l1.19,1.08c.63,.57,.87,1.46,.6,2.27-.44,1.3-.97,2.59-1.58,3.81-.36,.72-1.11,1.18-1.92,1.18l-1.73-.09c-.07,0-.14,0-.21,0-1.24,0-2.4,.55-3.17,1.5-1.1,1.35-2.34,2.59-3.69,3.69-1,.81-1.56,2.08-1.49,3.38l.08,1.62c.04,.85-.42,1.65-1.17,2.02-1.23,.61-2.51,1.14-3.81,1.58-.22,.07-.44,.11-.67,.11Zm-8.74-49.71c-11.86,0-21.5,9.64-21.5,21.5s9.65,21.5,21.5,21.5,21.5-9.64,21.5-21.5-9.64-21.5-21.5-21.5Z"/>
        <path d="M41.26,22.79c.32,0,.63,.14,.85,.38l1.08,1.19c.97,1.07,2.36,1.69,3.8,1.69,.19,0,.38-.01,.57-.03,.86-.1,1.65-.14,2.43-.14s1.57,.05,2.43,.14c.19,.02,.38,.03,.57,.03,1.45,0,2.84-.62,3.8-1.69l1.08-1.19c.22-.24,.53-.38,.85-.38,.12,0,.24,.02,.36,.06,1.26,.42,2.5,.93,3.68,1.52,.4,.2,.65,.62,.62,1.08l-.08,1.62c-.08,1.62,.61,3.2,1.86,4.21,1.3,1.05,2.49,2.24,3.54,3.54,.96,1.19,2.4,1.87,3.95,1.87,.09,0,.17,0,.26,0l1.62-.08h.06c.43,0,.83,.24,1.02,.62,.59,1.18,1.1,2.42,1.52,3.68,.14,.43,.02,.9-.32,1.21l-1.19,1.08c-1.22,1.1-1.84,2.74-1.66,4.38,.1,.86,.14,1.65,.14,2.43s-.05,1.57-.14,2.43c-.18,1.64,.44,3.28,1.66,4.38l1.19,1.08c.34,.31,.46,.78,.32,1.21-.42,1.26-.93,2.5-1.52,3.68-.19,.38-.59,.62-1.02,.62h-.06s-1.62-.08-1.62-.08c-.09,0-.18,0-.26,0-1.54,0-2.98,.68-3.95,1.87-1.05,1.3-2.24,2.49-3.54,3.54-1.25,1.01-1.95,2.59-1.86,4.21l.08,1.62c.02,.46-.22,.88-.62,1.08-1.18,.59-2.42,1.1-3.68,1.52-.11,.04-.23,.06-.36,.06-.32,0-.63-.14-.85-.38l-1.08-1.19c-.97-1.07-2.36-1.69-3.8-1.69-.19,0-.38,.01-.57,.03-.86,.1-1.65,.14-2.43,.14s-1.57-.05-2.43-.14c-.19-.02-.38-.03-.57-.03-1.45,0-2.84,.62-3.8,1.69l-1.08,1.19c-.22,.24-.53,.38-.85,.38-.12,0-.24-.02-.36-.06-1.26-.42-2.5-.93-3.68-1.52-.4-.2-.65-.62-.62-1.08l.08-1.62c.08-1.62-.61-3.2-1.86-4.21-1.3-1.05-2.49-2.24-3.54-3.54-.96-1.19-2.4-1.87-3.95-1.87-.09,0-.17,0-.26,0l-1.62,.08h-.06c-.43,0-.83-.24-1.02-.62-.59-1.18-1.1-2.42-1.52-3.68-.14-.43-.02-.9,.32-1.21l1.19-1.08c1.22-1.1,1.84-2.74,1.66-4.38-.1-.86-.14-1.65-.14-2.43s.05-1.57,.14-2.43c.18-1.64-.44-3.28-1.66-4.38l-1.19-1.08c-.34-.31-.46-.78-.32-1.21,.42-1.26,.93-2.5,1.52-3.68,.19-.38,.59-.62,1.02-.62h.06s1.62,.08,1.62,.08c.09,0,.18,0,.26,0,1.54,0,2.98-.68,3.95-1.87,1.05-1.3,2.24-2.49,3.54-3.54,1.25-1.01,1.95-2.59,1.86-4.21l-.08-1.62c-.02-.45,.22-.88,.62-1.08,1.18-.59,2.42-1.1,3.68-1.52,.11-.04,.23-.06,.36-.06m8.74,49.71c12.41,0,22.5-10.09,22.5-22.5s-10.09-22.5-22.5-22.5-22.5,10.09-22.5,22.5,10.09,22.5,22.5,22.5m8.74-51.71c-.88,0-1.73,.37-2.34,1.04l-1.08,1.19c-.6,.66-1.44,1.03-2.32,1.03-.12,0-.23,0-.35-.02-.87-.1-1.75-.15-2.65-.15s-1.78,.06-2.65,.15c-.12,.01-.23,.02-.35,.02-.88,0-1.72-.37-2.32-1.03l-1.08-1.19c-.61-.67-1.46-1.04-2.34-1.04-.33,0-.66,.05-.99,.16-1.36,.45-2.68,1-3.94,1.63-1.11,.56-1.79,1.73-1.73,2.97l.08,1.62c.05,.98-.36,1.93-1.13,2.55-1.41,1.14-2.69,2.43-3.83,3.83-.59,.72-1.47,1.13-2.39,1.13-.05,0-.11,0-.16,0l-1.62-.08c-.05,0-.11,0-.16,0-1.18,0-2.28,.66-2.81,1.73-.63,1.27-1.18,2.58-1.63,3.94-.39,1.18-.05,2.49,.88,3.32l1.19,1.08c.75,.68,1.12,1.67,1.01,2.67-.1,.87-.15,1.75-.15,2.65s.06,1.78,.15,2.65c.11,1-.26,2-1.01,2.67l-1.19,1.08c-.93,.84-1.27,2.14-.88,3.32,.45,1.36,1,2.68,1.63,3.94,.53,1.07,1.63,1.73,2.81,1.73,.05,0,.11,0,.16,0l1.62-.08c.05,0,.11,0,.16,0,.92,0,1.81,.41,2.39,1.13,1.14,1.41,2.43,2.69,3.83,3.83,.76,.62,1.18,1.57,1.13,2.55l-.08,1.62c-.06,1.24,.61,2.41,1.73,2.97,1.27,.63,2.58,1.18,3.94,1.63,.32,.11,.66,.16,.99,.16,.88,0,1.73-.37,2.34-1.04l1.08-1.19c.6-.66,1.44-1.03,2.32-1.03,.12,0,.23,0,.35,.02,.87,.1,1.75,.15,2.65,.15s1.78-.06,2.65-.15c.12-.01,.23-.02,.35-.02,.88,0,1.72,.37,2.32,1.03l1.08,1.19c.61,.67,1.46,1.04,2.34,1.04,.33,0,.66-.05,.99-.16,1.36-.45,2.68-1,3.94-1.63,1.11-.56,1.79-1.73,1.73-2.97l-.08-1.62c-.05-.98,.36-1.93,1.13-2.55,1.41-1.14,2.69-2.43,3.83-3.83,.59-.72,1.47-1.13,2.39-1.13,.05,0,.11,0,.16,0l1.62,.08c.05,0,.11,0,.16,0,1.18,0,2.28-.66,2.81-1.73,.63-1.27,1.18-2.58,1.63-3.94,.39-1.18,.05-2.49-.88-3.32l-1.19-1.08c-.75-.68-1.12-1.67-1.01-2.67,.1-.87,.15-1.75,.15-2.65s-.06-1.78-.15-2.65c-.11-1,.26-2,1.01-2.67l1.19-1.08c.93-.84,1.27-2.14,.88-3.32-.45-1.36-1-2.68-1.63-3.94-.53-1.07-1.63-1.73-2.81-1.73-.05,0-.11,0-.16,0l-1.62,.08c-.05,0-.11,0-.16,0-.92,0-1.81-.41-2.39-1.13-1.14-1.41-2.43-2.69-3.83-3.83-.76-.62-1.18-1.57-1.13-2.55l.08-1.62c.06-1.24-.61-2.41-1.73-2.97-1.27-.63-2.58-1.18-3.94-1.63-.32-.11-.66-.16-.99-.16h0Zm-8.74,49.71c-11.32,0-20.5-9.18-20.5-20.5s9.18-20.5,20.5-20.5,20.5,9.18,20.5,20.5-9.18,20.5-20.5,20.5h0Z"/>
      </g>
    </g>
  </g>
</svg>