<?xml version="1.0" encoding="UTF-8"?>
<svg id="b" data-name="Слой 2" xmlns="http://www.w3.org/2000/svg" width="85.48" height="99.15" viewBox="0 0 85.48 99.15">
  <defs>
    <style>
      .d {
        stroke-miterlimit: 10;
      }

      .d, .e {
        stroke: #000;
      }

      .e {
        fill: none;
        stroke-linecap: round;
        stroke-linejoin: round;
        stroke-width: 5px;
      }
    </style>
  </defs>
  <g id="c" data-name="Слой 1">
    <g>
      <path class="e" d="M2.5,2.5H82.98V87.65c0,4.97-4.03,9-9,9H2.5V2.5h0Z"/>
      <path d="M64.65,28.44v11.88h10.56c.96,0,1.74,.78,1.74,1.74h0c0,.96-.78,1.74-1.74,1.74h-10.56v11.99c0,.96-.78,1.74-1.74,1.74h0c-.96,0-1.74-.78-1.74-1.74v-11.99h-10.56c-.96,0-1.74-.78-1.74-1.74h0c0-.96,.78-1.74,1.74-1.74h10.56v-11.88c0-.96,.78-1.74,1.74-1.74h0c.96,0,1.74,.78,1.74,1.74Z"/>
      <path class="d" d="M33.85,16.38h0c1.29,0,2.45,.82,2.87,2.04l19.87,56.44c.47,1.33-.52,2.72-1.92,2.72h-.23c-.87,0-1.65-.56-1.93-1.39l-11.72-34.63c-2.47-7.25-4.65-13.67-6.78-21.13h-.37c-2.15,7.46-4.31,13.88-6.78,21.13l-11.9,34.64c-.28,.82-1.06,1.38-1.93,1.38h0c-1.41,0-2.39-1.39-1.92-2.72L30.98,18.42c.43-1.22,1.58-2.04,2.87-2.04Zm-13.84,36.6h27.41v3.61H20.01v-3.61Z"/>
    </g>
  </g>
</svg>