<?xml version="1.0" encoding="UTF-8"?>
<svg id="b" data-name="Слой 2" xmlns="http://www.w3.org/2000/svg" width="30" height="25" viewBox="0 0 66.28 76.38">
  <g id="c" data-name="Слой 1">
    <path d="M33.14,6c1.12,0,1.97,.15,2.39,.26,2.99,2.78,7.28,6.16,11.82,9.73,4.9,3.86,9.97,7.85,12.79,10.66,.05,.11,.14,.41,.14,.9v40.87c0,1.08-.88,1.95-1.95,1.95h-8.58v-9.91c0-6.23-5.07-11.3-11.3-11.3h-10.61c-6.23,0-11.3,5.07-11.3,11.3v9.91H7.95c-1.08,0-1.95-.88-1.95-1.95V27.56c0-.49,.09-.8,.14-.9,2.83-2.81,7.89-6.8,12.79-10.66,4.53-3.57,8.83-6.95,11.82-9.73,.42-.11,1.27-.26,2.39-.26m0-6c-2.52,0-5.04,.51-6.11,1.52C21.1,7.17,7.64,16.68,1.84,22.47c-1.32,1.32-1.84,3.23-1.84,5.09v40.87c0,4.39,3.56,7.95,7.95,7.95h14.58v-15.91c0-2.93,2.37-5.3,5.3-5.3h10.61c2.93,0,5.3,2.37,5.3,5.3v15.91h14.58c4.39,0,7.95-3.56,7.95-7.95V27.56c0-1.86-.53-3.78-1.84-5.09-5.79-5.79-19.25-15.3-25.19-20.95-1.07-1.01-3.59-1.52-6.11-1.52h0Z"/>
  </g>
</svg>