<?xml version="1.0" encoding="UTF-8"?>
<svg id="b" data-name="Слой 2" xmlns="http://www.w3.org/2000/svg" width="89.94" height="97.73" viewBox="0 0 89.94 97.73">
  <g id="c" data-name="Слой 1">
    <path d="M44.97,5c3.58,0,7.05,1.28,9.76,3.61l27.47,23.54c1.74,1.49,2.74,3.66,2.74,5.96v48.05c0,3.62-2.94,6.56-6.56,6.56h-11.56c-1.49,0-2.71-1.22-2.71-2.71v-10.28c0-6.3-5.12-11.42-11.42-11.42h-15.42c-6.3,0-11.42,5.12-11.42,11.42v10.28c0,1.49-1.22,2.71-2.71,2.71H11.56c-3.62,0-6.56-2.94-6.56-6.56V38.11c0-2.29,1-4.47,2.74-5.96L35.21,8.61c2.72-2.33,6.18-3.61,9.76-3.61m0-5c-4.64,0-9.27,1.6-13.02,4.81L4.49,28.36c-2.85,2.44-4.49,6-4.49,9.76v48.05c0,6.39,5.18,11.56,11.56,11.56h11.56c4.26,0,7.71-3.45,7.71-7.71v-10.28c0-3.55,2.88-6.42,6.42-6.42h15.42c3.55,0,6.42,2.88,6.42,6.42v10.28c0,4.26,3.45,7.71,7.71,7.71h11.56c6.39,0,11.56-5.18,11.56-11.56V38.11c0-3.75-1.64-7.31-4.49-9.76L57.99,4.81c-3.74-3.21-8.38-4.81-13.02-4.81h0Z"/>
  </g>
</svg>