<?xml version="1.0" encoding="utf-8"?>
<!-- Generator: Adobe Illustrator 26.4.1, SVG Export Plug-In . SVG Version: 6.00 Build 0)  -->
<svg version="1.1" id="b" xmlns="http://www.w3.org/2000/svg" xmlns:xlink="http://www.w3.org/1999/xlink" x="0px" y="0px"
	 viewBox="0 0 70 70" style="enable-background:new 0 0 70 70;" xml:space="preserve">
<style type="text/css">
	.st0{fill:#1E42BB;}
	.st1{enable-background:new    ;}
	.st2{fill:#FFFFFF;}
</style>
<g id="c">
	<g>
		<rect class="st0" width="70" height="70"/>
		<g class="st1">
			<path class="st2" d="M4,48.5v-27h17.3v4.2H8.9v6.7h11v4.1h-11v7.9h13.3v4.2H4z"/>
			<path class="st2" d="M45.6,21.5v4.2h-8.3v22.7h-4.9V25.8h-8.3v-4.2H45.6z"/>
			<path class="st2" d="M55.9,44.8c1.8,0,3-0.3,3.9-0.9c0.8-0.6,1.2-1.4,1.2-2.5c0-0.6-0.1-1.2-0.4-1.7s-0.7-0.9-1.2-1.3
				c-0.5-0.4-1.1-0.7-1.8-1.1c-0.7-0.3-1.6-0.6-2.5-1c-0.9-0.3-1.8-0.7-2.7-1.1c-0.9-0.4-1.6-0.9-2.3-1.5c-0.7-0.6-1.2-1.3-1.6-2.1
				c-0.4-0.8-0.6-1.8-0.6-3c0-2.4,0.8-4.4,2.5-5.7c1.7-1.4,4-2.1,6.9-2.1c1.7,0,3.2,0.2,4.5,0.6c1.3,0.4,2.3,0.8,3.1,1.2l-1.5,4
				c-0.9-0.5-1.8-0.9-2.9-1.1c-1.1-0.3-2.1-0.4-3.2-0.4c-1.3,0-2.4,0.3-3.1,0.8c-0.7,0.5-1.1,1.3-1.1,2.3c0,0.6,0.1,1.1,0.4,1.5
				s0.6,0.8,1.1,1.1c0.5,0.3,1,0.6,1.6,0.9c0.6,0.3,1.3,0.6,2,0.8c1.3,0.5,2.4,0.9,3.4,1.4c1,0.5,1.8,1.1,2.5,1.7
				c0.7,0.7,1.2,1.4,1.6,2.3c0.4,0.9,0.5,2,0.5,3.2c0,2.4-0.9,4.3-2.6,5.7c-1.7,1.3-4.2,2-7.6,2c-1.1,0-2.1-0.1-3.1-0.2
				c-0.9-0.1-1.7-0.3-2.5-0.5c-0.7-0.2-1.3-0.4-1.8-0.6c-0.5-0.2-0.9-0.4-1.2-0.6l1.4-4c0.7,0.4,1.6,0.8,2.8,1.2
				C52.7,44.7,54.2,44.8,55.9,44.8z"/>
		</g>
	</g>
</g>
</svg>
