<?xml version="1.0" encoding="UTF-8"?>
<svg id="b" data-name="Слой 2" xmlns="http://www.w3.org/2000/svg" width="89.51" height="99" viewBox="0 0 89.51 99">
  <defs>
    <style>
      .d {
        fill: none;
        stroke: #000;
        stroke-linecap: round;
        stroke-linejoin: round;
        stroke-width: 5px;
      }
    </style>
  </defs>
  <g id="c" data-name="Слой 1">
    <g>
      <path class="d" d="M19.93,48.27c-.01-.13-.02-.26-.02-.39,27.37,22.06,49.26,0,49.26,0v.32c0-.11,0-.21,0-.32,0-.12,.25,0,.37,.02,7.33,.56,13.61,16.22,16.48,24.7,3,8.85-1.06,18.81-9.66,22.45-2.22,.94-4.66,1.46-7.23,1.46H20.4c-2.56,0-5.01-.52-7.23-1.46-8.58-3.63-12.65-13.54-9.72-22.38,2.76-8.34,8.79-23.75,15.88-24.73,.19-.03,.39-.04,.58-.05"/>
      <circle class="d" cx="44.76" cy="22.23" r="19.73"/>
    </g>
  </g>
</svg>